<?xml version="1.0" standalone="no"?>
<!DOCTYPE svg PUBLIC "-//W3C//DTD SVG 20010904//EN"
 "http://www.w3.org/TR/2001/REC-SVG-20010904/DTD/svg10.dtd">
<svg version="1.0" xmlns="http://www.w3.org/2000/svg"
 width="512.000000pt" height="512.000000pt" viewBox="0 0 512.000000 512.000000"
 preserveAspectRatio="xMidYMid meet">

<g transform="translate(0.000000,512.000000) scale(0.100000,-0.100000)"
fill="#000000" stroke="none">
<path d="M1755 5070 c-1342 -5 -1442 -6 -1472 -22 -42 -24 -68 -62 -89 -133
-15 -53 -16 -84 -9 -255 4 -107 8 -213 9 -235 l1 -40 -60 -5 c-61 -6 -108 -26
-102 -45 2 -5 40 -11 85 -13 l82 -3 0 -219 0 -220 -52 0 c-62 0 -121 -30 -116
-58 3 -14 17 -17 86 -20 l82 -3 -2 -212 -3 -212 -70 -5 c-81 -6 -95 -12 -95
-45 0 -33 27 -45 105 -45 l65 0 -2 -217 -3 -218 -50 -6 c-55 -6 -99 -22 -110
-38 -4 -8 22 -11 79 -11 l86 0 0 -220 0 -220 -63 0 c-67 0 -107 -18 -107 -49
0 -32 22 -41 97 -41 l73 0 0 -210 0 -210 -63 0 c-76 0 -110 -19 -105 -58 3
-26 5 -27 83 -32 l80 -5 0 -220 0 -220 -61 -6 c-33 -3 -71 -13 -84 -22 -22
-16 -20 -16 61 -19 l84 -3 3 -110 c1 -60 -1 -159 -5 -220 l-8 -110 -60 -3
c-66 -3 -98 -23 -93 -56 3 -18 11 -21 69 -24 l66 -3 -1 -257 c-1 -224 1 -264
17 -309 35 -101 106 -132 317 -140 79 -3 183 0 250 8 83 9 459 14 1365 18
1409 7 1309 1 1380 83 35 42 48 85 61 204 l6 61 67 7 c139 13 212 51 252 133
l23 47 -3 1131 -2 1130 558 815 c307 449 574 845 592 880 30 56 36 77 39 150
3 69 0 96 -17 141 -32 83 -91 146 -177 185 -62 29 -85 34 -173 38 l-102 5 -85
-41 c-70 -34 -99 -56 -155 -116 -38 -41 -92 -109 -119 -151 -76 -117 -332
-491 -339 -495 -3 -2 -6 66 -6 152 0 154 0 158 -30 217 -46 92 -63 100 -206
100 l-119 0 0 116 c0 140 -13 168 -99 212 -51 25 -62 27 -160 25 -58 -2 -754
-5 -1546 -8z m-1030 -58 c92 -6 1660 -8 2325 -4 188 2 198 1 275 -26 98 -33
106 -47 109 -173 l2 -89 -986 0 c-841 0 -1008 2 -1145 16 -88 9 -245 17 -350
18 -209 0 -285 -12 -358 -60 -54 -36 -67 -74 -67 -199 l0 -105 -119 0 -119 0
-7 55 c-12 102 -3 265 24 398 l25 129 41 20 c45 24 140 38 200 31 22 -2 90 -7
150 -11z m3942 -47 c-32 -19 -61 -35 -64 -35 -4 0 8 16 27 35 24 25 43 35 64
35 29 0 28 -2 -27 -35z m255 -100 c6 -14 9 -27 7 -29 -19 -16 -195 -113 -199
-110 -5 6 161 163 173 164 4 0 13 -11 19 -25z m-375 -202 c-85 -86 -87 -87
-111 -73 -14 8 -26 19 -27 24 -1 8 206 135 221 136 3 0 -34 -39 -83 -87z m423
42 c0 -31 -5 -37 -61 -70 -34 -20 -63 -34 -65 -32 -4 3 115 137 122 137 2 0 4
-16 4 -35z m-1283 -38 c97 -51 124 -169 103 -450 l-13 -176 -170 -248 c-93
-136 -222 -324 -285 -418 -64 -93 -129 -188 -145 -210 -16 -22 -81 -116 -144
-210 l-115 -170 -84 -285 c-46 -157 -95 -319 -110 -360 -14 -41 -28 -108 -31
-147 -6 -84 7 -114 61 -140 70 -33 158 3 301 122 44 37 184 147 310 245 l230
177 89 132 c48 73 90 131 92 129 2 -2 4 -486 5 -1076 1 -967 -1 -1075 -15
-1097 -30 -45 -196 -76 -210 -39 -5 13 -15 15 -48 10 -23 -4 -47 -11 -53 -15
-5 -5 -64 -4 -130 1 -122 9 -2046 12 -2120 3 -89 -11 -333 -13 -378 -4 -101
22 -165 105 -182 234 l-7 50 79 3 c64 2 81 6 95 23 13 16 15 25 8 40 -9 16
-22 19 -97 19 l-86 0 8 107 c4 60 8 122 10 138 1 17 3 69 3 118 l2 87 50 0
c30 0 64 7 83 18 l32 17 -50 3 c-27 1 -65 4 -82 7 l-33 6 0 213 0 213 68 6
c51 5 71 11 85 28 38 47 11 69 -87 69 l-66 0 0 210 0 210 65 0 c52 0 69 4 85
20 24 24 25 34 4 54 -11 12 -35 16 -85 16 l-69 0 0 220 0 220 34 0 c40 0 95
17 116 36 12 12 2 14 -68 14 l-82 0 0 220 0 220 60 0 c52 0 65 4 86 25 20 20
23 29 14 45 -14 26 -49 34 -111 26 l-49 -7 0 216 0 215 55 0 c47 0 59 4 87 30
43 39 28 50 -69 50 l-73 0 0 220 0 220 46 0 c52 0 114 25 114 46 0 11 -18 14
-79 14 l-78 0 -7 61 c-11 105 -7 227 7 236 18 12 239 13 337 1 90 -10 2123
-14 2220 -4 181 19 212 20 222 3 12 -22 45 -21 87 1 38 21 105 16 158 -11z
m1018 -89 c-38 -40 -75 -80 -82 -88 -12 -13 -18 -12 -48 4 -21 12 -32 23 -27
28 13 13 205 126 216 127 5 1 -22 -32 -59 -71z m-180 -175 c116 -79 211 -148
213 -153 2 -5 -88 -143 -201 -307 -603 -882 -991 -1449 -997 -1456 -7 -8 -419
262 -468 307 -18 16 -22 28 -18 51 9 43 95 168 238 347 68 84 290 397 493 693
203 297 393 575 423 618 l54 78 27 -17 c14 -10 121 -82 236 -161z m293 78 c-1
-5 -20 -28 -42 -51 -35 -39 -40 -41 -62 -29 -28 15 -29 13 38 55 55 34 72 40
66 25z m-4288 -223 c1 -35 2 -134 3 -221 l2 -157 -107 0 -108 0 -2 73 c-2 116
-4 156 -12 265 l-8 102 116 0 116 0 0 -62z m0 -540 c1 -46 1 -126 2 -178 0
-52 0 -109 -1 -126 l-1 -31 -88 -7 c-48 -4 -95 -4 -105 -1 -15 7 -17 27 -17
216 l0 209 105 0 105 0 0 -82z m4 -601 c-1 -89 -2 -188 -3 -219 l-1 -58 -105
0 -105 0 0 220 0 220 108 0 107 0 -1 -163z m-1 -490 c-1 -89 -2 -188 -2 -219
l-1 -58 -105 0 -105 0 0 220 0 220 108 0 107 0 -2 -163z m2698 -78 c107 -73
202 -137 211 -144 14 -9 -2 -25 -115 -111 l-132 -101 -137 91 c-94 62 -136 96
-133 106 2 8 16 56 30 105 46 160 59 196 70 191 7 -2 99 -64 206 -137z m-2700
-304 c0 -8 0 -78 0 -155 0 -77 0 -165 0 -195 l-1 -55 -105 0 -105 0 0 210 0
210 105 0 c86 0 105 -3 106 -15z m2457 -111 c-29 -19 -56 -34 -61 -34 -4 0 9
22 29 49 36 48 38 49 61 34 l24 -16 -53 -33z m-49 -138 c-38 -36 -94 -76 -107
-76 -22 0 -6 15 55 51 45 26 62 35 52 25z m-2407 -470 c-1 -115 -3 -210 -5
-212 -1 -1 -48 -4 -104 -6 l-103 -5 0 219 0 219 108 -3 107 -3 -3 -209z m-1
-303 c2 -71 0 -396 -3 -398 -2 -1 -48 -4 -103 -6 l-100 -4 -3 218 -2 217 105
0 105 0 1 -27z m-33 -499 l31 -6 -2 -112 c-2 -90 1 -117 16 -143 36 -68 -52
-63 1203 -69 626 -3 1263 -5 1414 -4 l276 2 2 -101 c3 -95 2 -102 -21 -125
-40 -40 -127 -61 -242 -59 -55 1 -500 5 -990 8 -666 5 -934 4 -1065 -6 -96 -7
-258 -14 -360 -16 -215 -5 -319 10 -395 58 -38 24 -46 36 -60 83 -24 81 -23
236 1 438 l6 47 51 4 c29 2 64 4 78 5 15 1 40 -1 57 -4z"/>
<path d="M2086 4059 c-364 -34 -649 -193 -776 -430 -96 -180 -121 -554 -50
-742 12 -32 20 -59 18 -60 -1 -1 -20 -10 -40 -21 -67 -34 -92 -129 -67 -262
15 -78 13 -71 32 -133 9 -30 22 -92 27 -138 11 -86 32 -155 56 -184 8 -8 43
-26 80 -38 45 -16 68 -30 73 -45 5 -11 11 -64 15 -116 12 -172 73 -266 264
-410 70 -52 161 -124 202 -159 223 -188 424 -210 640 -70 72 46 163 134 157
152 -2 6 -22 13 -45 15 -37 3 -47 -1 -90 -42 -27 -25 -75 -57 -106 -72 -52
-24 -67 -26 -147 -22 -83 4 -95 8 -191 55 -125 63 -327 213 -421 313 -82 87
-131 180 -147 283 -6 40 -14 92 -18 117 -5 34 -12 46 -27 48 -49 7 -106 36
-126 63 -13 18 -26 62 -34 117 -13 78 -39 161 -82 260 -18 41 -28 131 -19 167
9 35 58 56 97 42 22 -9 36 -8 64 6 32 15 35 20 35 59 0 24 5 61 10 83 6 22 13
56 16 74 10 61 84 257 117 312 40 67 90 103 134 95 18 -2 77 -29 130 -60 118
-66 200 -92 330 -105 244 -25 477 44 620 184 36 35 63 69 61 77 -3 7 -22 14
-45 16 -37 3 -47 -2 -103 -52 -117 -104 -246 -150 -425 -149 -177 0 -293 41
-415 148 -36 31 -75 61 -88 66 -67 26 -169 -9 -238 -82 -82 -86 -113 -151
-192 -399 -12 -37 -23 109 -19 250 4 135 8 165 31 233 80 236 264 375 586 444
66 14 130 18 290 18 220 0 268 -6 473 -57 l127 -32 28 21 c15 11 28 29 30 41
3 17 -7 23 -60 41 -210 69 -535 103 -772 80z"/>
</g>
</svg>
