<?xml version="1.0" standalone="no"?>
<!DOCTYPE svg PUBLIC "-//W3C//DTD SVG 20010904//EN"
 "http://www.w3.org/TR/2001/REC-SVG-20010904/DTD/svg10.dtd">
<svg version="1.0" xmlns="http://www.w3.org/2000/svg"
 width="512.000000pt" height="512.000000pt" viewBox="0 0 512.000000 512.000000"
 preserveAspectRatio="xMidYMid meet">

<g transform="translate(0.000000,512.000000) scale(0.100000,-0.100000)"
fill="#000000" stroke="none">
<path d="M1324 5075 c-38 -19 -84 -65 -203 -200 -85 -96 -159 -175 -164 -175
-6 0 -60 16 -121 36 -137 44 -219 52 -305 30 -112 -29 -174 -69 -273 -180 -97
-109 -127 -160 -128 -218 0 -78 44 -137 145 -193 33 -18 271 -142 530 -275
259 -133 474 -246 478 -250 5 -4 -62 -107 -148 -228 l-157 -220 -187 65 c-102
36 -217 76 -255 89 -93 32 -151 38 -222 24 -84 -17 -146 -54 -216 -129 -73
-78 -102 -138 -95 -193 7 -55 43 -96 133 -153 44 -27 158 -101 254 -165 l176
-115 -25 -60 c-68 -166 0 -352 152 -410 46 -17 46 -17 51 -74 18 -174 41 -315
71 -428 43 -162 92 -290 115 -303 35 -19 77 -12 99 16 27 35 27 45 -10 139
-60 157 -111 400 -122 582 -3 61 -2 62 26 74 16 7 44 22 62 35 l33 22 178
-211 c226 -267 240 -282 292 -298 68 -20 114 -1 193 83 37 38 79 95 95 126 26
52 29 67 29 159 l0 101 -129 259 -128 258 54 50 c267 248 350 318 358 304 5
-8 62 -93 127 -189 127 -188 148 -208 202 -189 35 12 51 35 51 72 0 14 -55
105 -135 223 l-134 199 47 44 c158 147 396 361 402 361 8 0 437 -917 463 -990
24 -70 19 -166 -11 -227 -12 -23 -60 -82 -106 -130 -75 -79 -85 -86 -101 -73
-9 7 -73 96 -141 197 -69 101 -134 187 -144 193 -51 27 -110 -11 -110 -71 0
-30 205 -344 268 -411 62 -66 141 -86 215 -54 63 26 237 224 267 303 59 159
45 275 -62 486 l-29 59 54 61 c30 34 101 114 157 177 119 134 139 172 140 254
0 85 -26 132 -126 224 -110 100 -168 132 -243 132 -91 -1 -133 -25 -234 -139
-26 -30 -49 -52 -52 -50 -2 3 -22 44 -44 91 l-40 87 128 115 c163 146 246 247
311 374 29 57 34 63 58 58 15 -2 50 -8 77 -11 90 -11 198 -35 302 -67 l103
-31 -26 -35 c-63 -82 -81 -206 -46 -308 27 -78 75 -151 203 -308 135 -168 176
-229 195 -292 19 -64 9 -93 -69 -206 -199 -286 -233 -501 -102 -633 50 -49
122 -81 215 -95 205 -30 247 -44 293 -100 15 -17 30 -48 35 -68 5 -20 14 -59
21 -87 23 -99 111 -186 228 -224 83 -27 225 -28 301 -2 28 10 52 14 52 9 0
-21 -42 -172 -71 -255 -17 -48 -59 -147 -95 -220 l-64 -132 -85 64 c-99 75
-217 134 -330 167 -68 20 -103 23 -235 23 -144 0 -161 -2 -243 -29 -145 -47
-254 -128 -331 -245 -112 -170 -270 -255 -501 -268 -176 -10 -320 28 -430 111
-69 53 -175 104 -263 127 -279 71 -524 -66 -610 -341 -11 -36 -24 -83 -29
-105 l-9 -40 -124 125 c-69 69 -159 173 -200 230 -95 131 -113 150 -145 150
-33 0 -75 -42 -75 -75 0 -55 177 -282 346 -445 282 -272 630 -459 1018 -550
328 -76 735 -67 1069 25 750 205 1350 816 1537 1565 52 207 65 315 65 545 0
259 -23 416 -95 650 -145 478 -468 906 -895 1188 -246 162 -577 287 -880 331
-68 10 -89 16 -86 27 2 8 6 78 9 156 9 269 -42 390 -195 460 -103 47 -301 40
-498 -19 -197 -58 -349 -184 -534 -443 -52 -71 -97 -134 -101 -139 -7 -6 -85
14 -188 49 -9 3 8 28 48 72 78 85 102 136 101 214 0 85 -32 139 -143 235 -49
44 -106 87 -126 96 -57 27 -147 23 -208 -7z m193 -174 c32 -26 66 -58 77 -69
18 -21 18 -22 -1 -52 -27 -43 -186 -218 -198 -219 -6 -1 -69 18 -139 42 l-129
43 127 142 c69 78 134 146 144 151 33 20 61 11 119 -38z m1405 -28 c69 -40 98
-119 98 -267 0 -136 -24 -248 -74 -351 -59 -119 -123 -194 -313 -368 -594
-543 -1705 -1544 -1736 -1565 -76 -50 -178 -37 -212 28 -20 39 -19 126 3 171
9 20 341 493 737 1050 774 1089 813 1138 955 1222 158 92 448 135 542 80z
m-1700 -426 l517 -172 -147 -205 c-81 -113 -160 -224 -177 -247 -16 -23 -32
-42 -35 -42 -13 -1 -1049 541 -1074 561 l-28 23 42 55 c122 158 188 200 310
199 70 0 111 -12 592 -172z m2636 -426 c181 -91 400 -256 549 -414 271 -287
463 -669 527 -1048 40 -235 39 -513 -1 -567 -78 -105 -282 -122 -396 -32 -36
29 -43 44 -61 130 -19 88 -51 145 -112 199 -61 53 -133 80 -280 101 -196 29
-229 53 -229 164 1 62 6 81 42 156 22 47 66 121 97 165 100 143 111 169 111
261 0 75 -3 87 -42 165 -23 46 -73 122 -111 169 -37 47 -100 124 -138 172
-118 147 -156 246 -119 319 15 29 73 99 82 99 2 0 38 -18 81 -39z m-802 -490
c6 -3 37 -29 69 -58 50 -45 57 -55 51 -78 -6 -22 -59 -87 -211 -257 l-42 -46
-60 131 -61 132 81 88 c45 49 90 93 102 97 19 8 48 5 71 -9z m-2408 -377 c120
-42 220 -79 224 -82 6 -7 -122 -195 -190 -279 l-29 -37 -244 159 c-134 87
-246 160 -248 161 -10 8 90 117 124 134 72 36 123 28 363 -56z m898 -801 c100
-207 109 -231 108 -282 0 -65 -15 -97 -79 -166 l-46 -50 -27 35 c-15 19 -68
82 -117 140 -50 58 -125 146 -168 196 l-77 92 72 69 c126 120 207 193 216 193
5 0 58 -102 118 -227z m2709 -1108 c44 -14 109 -42 145 -61 72 -38 178 -117
187 -140 14 -37 -235 -310 -397 -436 -187 -144 -394 -258 -605 -331 -566 -195
-1213 -122 -1722 196 l-83 52 0 50 c0 67 24 164 55 226 114 224 370 248 625
59 134 -100 272 -135 493 -127 166 5 235 21 362 82 109 52 187 120 261 225 68
97 119 144 199 182 141 65 328 75 480 23z"/>
<path d="M2473 4683 c-27 -5 -63 -48 -63 -75 0 -11 13 -33 29 -49 23 -22 39
-29 69 -29 69 0 148 -73 172 -159 13 -48 38 -71 77 -71 148 0 48 271 -131 354
-53 24 -115 36 -153 29z"/>
</g>
</svg>
