<?xml version="1.0" standalone="no"?>
<svg xmlns:xlink="http://www.w3.org/1999/xlink" id="wave" style="transform:rotate(0deg); transition: 0.3s" viewBox="0 0 1440 390" version="1.1" xmlns="http://www.w3.org/2000/svg"><defs><linearGradient id="sw-gradient-0" x1="0" x2="0" y1="1" y2="0"><stop stop-color="rgba(107.608, 73.159, 130.808, 1)" offset="0%"/><stop stop-color="rgba(106.716, 70.943, 130.808, 1)" offset="100%"/></linearGradient></defs><path style="transform:translate(0, 0px); opacity:1" fill="url(#sw-gradient-0)" d="M0,156L60,143C120,130,240,104,360,97.5C480,91,600,104,720,104C840,104,960,91,1080,91C1200,91,1320,104,1440,130C1560,156,1680,195,1800,201.5C1920,208,2040,182,2160,201.5C2280,221,2400,286,2520,299C2640,312,2760,273,2880,234C3000,195,3120,156,3240,175.5C3360,195,3480,273,3600,266.5C3720,260,3840,169,3960,162.5C4080,156,4200,234,4320,279.5C4440,325,4560,338,4680,338C4800,338,4920,325,5040,286C5160,247,5280,182,5400,130C5520,78,5640,39,5760,26C5880,13,6000,26,6120,65C6240,104,6360,169,6480,175.5C6600,182,6720,130,6840,130C6960,130,7080,182,7200,214.5C7320,247,7440,260,7560,266.5C7680,273,7800,273,7920,279.5C8040,286,8160,299,8280,299C8400,299,8520,286,8580,279.5L8640,273L8640,390L8580,390C8520,390,8400,390,8280,390C8160,390,8040,390,7920,390C7800,390,7680,390,7560,390C7440,390,7320,390,7200,390C7080,390,6960,390,6840,390C6720,390,6600,390,6480,390C6360,390,6240,390,6120,390C6000,390,5880,390,5760,390C5640,390,5520,390,5400,390C5280,390,5160,390,5040,390C4920,390,4800,390,4680,390C4560,390,4440,390,4320,390C4200,390,4080,390,3960,390C3840,390,3720,390,3600,390C3480,390,3360,390,3240,390C3120,390,3000,390,2880,390C2760,390,2640,390,2520,390C2400,390,2280,390,2160,390C2040,390,1920,390,1800,390C1680,390,1560,390,1440,390C1320,390,1200,390,1080,390C960,390,840,390,720,390C600,390,480,390,360,390C240,390,120,390,60,390L0,390Z"/><defs><linearGradient id="sw-gradient-1" x1="0" x2="0" y1="1" y2="0"><stop stop-color="rgba(152.735, 77.111, 203.666, 1)" offset="0%"/><stop stop-color="rgba(134.65, 72.74, 176.344, 1)" offset="100%"/></linearGradient></defs><path style="transform:translate(0, 50px); opacity:0.9" fill="url(#sw-gradient-1)" d="M0,156L60,156C120,156,240,156,360,130C480,104,600,52,720,39C840,26,960,52,1080,71.5C1200,91,1320,104,1440,123.5C1560,143,1680,169,1800,169C1920,169,2040,143,2160,169C2280,195,2400,273,2520,299C2640,325,2760,299,2880,286C3000,273,3120,273,3240,273C3360,273,3480,273,3600,240.5C3720,208,3840,143,3960,136.5C4080,130,4200,182,4320,214.5C4440,247,4560,260,4680,240.5C4800,221,4920,169,5040,149.5C5160,130,5280,143,5400,156C5520,169,5640,182,5760,214.5C5880,247,6000,299,6120,279.5C6240,260,6360,169,6480,117C6600,65,6720,52,6840,65C6960,78,7080,117,7200,149.5C7320,182,7440,208,7560,240.5C7680,273,7800,312,7920,305.5C8040,299,8160,247,8280,214.5C8400,182,8520,169,8580,162.5L8640,156L8640,390L8580,390C8520,390,8400,390,8280,390C8160,390,8040,390,7920,390C7800,390,7680,390,7560,390C7440,390,7320,390,7200,390C7080,390,6960,390,6840,390C6720,390,6600,390,6480,390C6360,390,6240,390,6120,390C6000,390,5880,390,5760,390C5640,390,5520,390,5400,390C5280,390,5160,390,5040,390C4920,390,4800,390,4680,390C4560,390,4440,390,4320,390C4200,390,4080,390,3960,390C3840,390,3720,390,3600,390C3480,390,3360,390,3240,390C3120,390,3000,390,2880,390C2760,390,2640,390,2520,390C2400,390,2280,390,2160,390C2040,390,1920,390,1800,390C1680,390,1560,390,1440,390C1320,390,1200,390,1080,390C960,390,840,390,720,390C600,390,480,390,360,390C240,390,120,390,60,390L0,390Z"/></svg>